P2
5 5
255
2 2 2 2 2 
2 0 0 0 2 
2 0 0 0 2 
2 0 0 0 2 
2 2 2 2 2 
